<svg xmlns="http://www.w3.org/2000/svg" width="900" height="1000" viewBox="0 0 900 1000">
  <!-- 标题 -->
  <text x="20" y="30" font-size="20" font-weight="650" fill="#172033">📚 学习历程时间线</text>
  <text x="20" y="50" font-size="13" fill="#5b6475">从上到下按时间排列 · 课程结束会更新</text>

  <!-- 图例 -->
  <rect x="530" y="18" width="14" height="14" rx="3" fill="#f59e0b" opacity="0.85"/>
  <text x="550" y="29" font-size="12" fill="#172033">Redis</text>
  <rect x="620" y="18" width="14" height="14" rx="3" fill="#3b82f6" opacity="0.85"/>
  <text x="640" y="29" font-size="12" fill="#172033">JavaSE</text>
  <rect x="710" y="18" width="14" height="14" rx="3" fill="#10b981" opacity="0.85"/>
  <text x="730" y="29" font-size="12" fill="#172033">JavaWeb</text>

  <!-- 时间线主线条 -->
  <line x1="120" y1="80" x2="120" y2="960" stroke="#e2e8f0" stroke-width="3"/>

  <!-- ===== 7/5 周日 - Redis ===== -->
  <text x="15" y="108" font-size="14" font-weight="600" fill="#172033">7/5</text>
  <text x="18" y="122" font-size="10" fill="#94a3b8">周日</text>
  <circle cx="120" cy="115" r="6" fill="#f59e0b"/>
  <rect x="145" y="95" width="260" height="40" rx="6" fill="#f59e0b" opacity="0.85"/>
  <text x="275" y="120" font-size="12" fill="#ffffff" font-weight="600" text-anchor="middle">Redis 基础入门</text>

  <!-- ===== 7/6 周一 ===== -->
  <text x="18" y="172" font-size="14" font-weight="600" fill="#94a3b8">7/6</text>
  <circle cx="120" cy="175" r="6" fill="#e2e8f0"/>
  <text x="145" y="179" font-size="12" fill="#94a3b8">— 休息 —</text>

  <!-- ===== 7/7 周二 - Redis ===== -->
  <text x="15" y="232" font-size="14" font-weight="600" fill="#172033">7/7</text>
  <text x="18" y="246" font-size="10" fill="#94a3b8">周二</text>
  <circle cx="120" cy="235" r="6" fill="#f59e0b"/>
  <rect x="145" y="215" width="260" height="40" rx="6" fill="#f59e0b" opacity="0.85"/>
  <text x="275" y="240" font-size="12" fill="#ffffff" font-weight="600" text-anchor="middle">优惠券秒杀 · 分布式锁</text>

  <!-- ===== 7/8 周三 - Redis ===== -->
  <text x="15" y="296" font-size="14" font-weight="600" fill="#172033">7/8</text>
  <text x="18" y="310" font-size="10" fill="#94a3b8">周三</text>
  <circle cx="120" cy="299" r="6" fill="#f59e0b"/>
  <rect x="145" y="279" width="260" height="40" rx="6" fill="#f59e0b" opacity="0.85"/>
  <text x="275" y="304" font-size="12" fill="#ffffff" font-weight="600" text-anchor="middle">秒杀优化 · 消息队列</text>

  <!-- ===== 7/9 周四 - 大满贯 ===== -->
  <text x="15" y="363" font-size="14" font-weight="600" fill="#172033">7/9</text>
  <text x="18" y="377" font-size="10" fill="#94a3b8">周四</text>
  <circle cx="120" cy="364" r="8" fill="#f59e0b"/>
  <rect x="145" y="340" width="260" height="24" rx="6" fill="#f59e0b" opacity="0.85"/>
  <text x="275" y="356" font-size="11" fill="#ffffff" font-weight="600" text-anchor="middle">Redis 达人探店</text>
  <rect x="145" y="367" width="260" height="24" rx="6" fill="#3b82f6" opacity="0.85"/>
  <text x="275" y="383" font-size="11" fill="#ffffff" font-weight="600" text-anchor="middle">JavaSE 入门（变量/流程/数组/JVM）</text>
  <rect x="145" y="394" width="260" height="24" rx="6" fill="#10b981" opacity="0.85"/>
  <text x="275" y="410" font-size="11" fill="#ffffff" font-weight="600" text-anchor="middle">JavaWeb 全套 15 篇笔记</text>

  <!-- ===== 7/10-7/15 休息 ===== -->
  <text x="15" y="460" font-size="13" font-weight="600" fill="#94a3b8">7/10</text>
  <circle cx="120" cy="462" r="6" fill="#fbbf24"/>
  <text x="145" y="458" font-size="11" fill="#f59e0b" font-weight="600">⬇ 休息</text>
  <text x="145" y="474" font-size="11" fill="#94a3b8">7/11 六 · 7/12 日 · 7/13 一 · 7/14 二 · 7/15 三</text>

  <!-- ===== 7/16 周五 - JavaSE OOP ===== -->
  <text x="15" y="524" font-size="14" font-weight="600" fill="#172033">7/16</text>
  <text x="18" y="538" font-size="10" fill="#94a3b8">周五</text>
  <circle cx="120" cy="527" r="6" fill="#3b82f6"/>
  <rect x="145" y="507" width="260" height="40" rx="6" fill="#3b82f6" opacity="0.85"/>
  <text x="275" y="532" font-size="12" fill="#ffffff" font-weight="600" text-anchor="middle">面向对象编程 · String · 常用 API</text>

  <!-- ===== 7/17-7/18 休息 ===== -->
  <text x="15" y="595" font-size="13" font-weight="600" fill="#94a3b8">7/17</text>
  <circle cx="120" cy="597" r="6" fill="#fbbf24"/>
  <text x="145" y="593" font-size="11" fill="#f59e0b" font-weight="600">⬇ 休息</text>
  <text x="145" y="609" font-size="11" fill="#94a3b8">7/18 日</text>

  <!-- ===== 7/19 周一 - JavaSE ===== -->
  <text x="15" y="656" font-size="14" font-weight="600" fill="#172033">7/19</text>
  <text x="18" y="670" font-size="10" fill="#94a3b8">周一</text>
  <circle cx="120" cy="659" r="6" fill="#3b82f6"/>
  <rect x="145" y="639" width="260" height="40" rx="6" fill="#3b82f6" opacity="0.75"/>
  <text x="275" y="664" font-size="12" fill="#ffffff" font-weight="600" text-anchor="middle">对象克隆 · 正则表达式 · 日期类</text>

  <!-- ===== 7/20 周二 - JavaSE ===== -->
  <text x="15" y="720" font-size="14" font-weight="600" fill="#172033">7/20</text>
  <text x="18" y="734" font-size="10" fill="#94a3b8">周二</text>
  <circle cx="120" cy="723" r="6" fill="#3b82f6"/>
  <rect x="145" y="703" width="260" height="40" rx="6" fill="#3b82f6" opacity="0.8"/>
  <text x="275" y="728" font-size="12" fill="#ffffff" font-weight="600" text-anchor="middle">集合框架 · List · 泛型</text>

  <!-- ===== 7/21 周三 - JavaSE ===== -->
  <text x="15" y="784" font-size="14" font-weight="600" fill="#172033">7/21</text>
  <text x="18" y="798" font-size="10" fill="#94a3b8">周三</text>
  <circle cx="120" cy="787" r="6" fill="#3b82f6"/>
  <rect x="145" y="767" width="260" height="40" rx="6" fill="#3b82f6" opacity="0.85"/>
  <text x="275" y="792" font-size="12" fill="#ffffff" font-weight="600" text-anchor="middle">ArrayList · LinkedList 源码</text>

  <!-- ===== 7/22 周四 - JavaSE ===== -->
  <text x="15" y="848" font-size="14" font-weight="600" fill="#172033">7/22</text>
  <text x="18" y="862" font-size="10" fill="#94a3b8">周四</text>
  <circle cx="120" cy="851" r="6" fill="#3b82f6"/>
  <rect x="145" y="831" width="260" height="40" rx="6" fill="#3b82f6" opacity="0.95"/>
  <text x="275" y="856" font-size="12" fill="#ffffff" font-weight="600" text-anchor="middle">数据结构 · Set 集合</text>
  <text x="430" y="856" font-size="11" fill="#eab308" font-weight="600">🎉 上部学完</text>

  <!-- 进度总览 -->
  <text x="430" y="110" font-size="13" fill="#5b6475">已完成：</text>
  <rect x="500" y="98" width="12" height="12" rx="2" fill="#f59e0b" opacity="0.85"/>
  <text x="516" y="109" font-size="12" fill="#172033">Redis 篇</text>
  <rect x="590" y="98" width="12" height="12" rx="2" fill="#10b981" opacity="0.85"/>
  <text x="606" y="109" font-size="12" fill="#172033">JavaWeb</text>
  <rect x="670" y="98" width="12" height="12" rx="2" fill="#3b82f6" opacity="0.85"/>
  <text x="686" y="109" font-size="12" fill="#172033">JavaSE 上部</text>

  <text x="430" y="135" font-size="13" fill="#5b6475">进行中：</text>
  <rect x="496" y="124" width="12" height="12" rx="2" fill="#3b82f6" opacity="0.85"/>
  <text x="512" y="135" font-size="12" fill="#172033">JavaSE 下部（进阶）</text>

  <!-- 剩余空间：可以继续往下加 -->
</svg>
