<svg viewBox="0 0 960 580" width="960" height="580" xmlns="http://www.w3.org/2000/svg">
  <!-- 标题 -->
  <text x="20" y="30" font-size="20" font-weight="650" fill="#172033">📚 学习历程时间线</text>
  <text x="20" y="50" font-size="13" fill="#5b6475">2026-07-05 → 2026-07-22 · 每格代表当天学习的内容板块</text>

  <!-- 图例 -->
  <rect x="640" y="18" width="14" height="14" rx="3" fill="#3b82f6" opacity="0.8"/>
  <text x="660" y="29" font-size="12" fill="#172033">JavaSE</text>
  <rect x="730" y="18" width="14" height="14" rx="3" fill="#10b981" opacity="0.8"/>
  <text x="750" y="29" font-size="12" fill="#172033">JavaWeb</text>
  <rect x="820" y="18" width="14" height="14" rx="3" fill="#f59e0b" opacity="0.8"/>
  <text x="840" y="29" font-size="12" fill="#172033">Redis</text>

  <!-- 左侧分类标签 -->
  <text x="60" y="112" font-size="12" font-weight="600" fill="#172033" text-anchor="end">Redis</text>
  <text x="60" y="160" font-size="12" font-weight="600" fill="#172033" text-anchor="end">JavaSE 基础</text>
  <text x="60" y="208" font-size="12" font-weight="600" fill="#172033" text-anchor="end">JavaSE 面向对象</text>
  <text x="60" y="256" font-size="12" font-weight="600" fill="#172033" text-anchor="end">JavaSE 进阶</text>
  <text x="60" y="304" font-size="12" font-weight="600" fill="#172033" text-anchor="end">JavaWeb</text>

  <!-- 水平分隔线 -->
  <line x1="70" y1="128" x2="940" y2="128" stroke="#e2e8f0" stroke-width="1" stroke-dasharray="4 4"/>
  <line x1="70" y1="176" x2="940" y2="176" stroke="#e2e8f0" stroke-width="1" stroke-dasharray="4 4"/>
  <line x1="70" y1="224" x2="940" y2="224" stroke="#e2e8f0" stroke-width="1" stroke-dasharray="4 4"/>
  <line x1="70" y1="272" x2="940" y2="272" stroke="#e2e8f0" stroke-width="1" stroke-dasharray="4 4"/>
  <line x1="70" y1="320" x2="940" y2="320" stroke="#e2e8f0" stroke-width="1" stroke-dasharray="4 4"/>

  <!-- 日期标签 -->
  <text x="98" y="350" font-size="11" fill="#5b6475" text-anchor="middle">7/5</text>
  <text x="146" y="350" font-size="11" fill="#5b6475" text-anchor="middle">7/6</text>
  <text x="194" y="350" font-size="11" fill="#5b6475" text-anchor="middle">7/7</text>
  <text x="242" y="350" font-size="11" fill="#5b6475" text-anchor="middle">7/8</text>
  <text x="290" y="350" font-size="11" fill="#5b6475" text-anchor="middle">7/9</text>
  <text x="338" y="350" font-size="11" fill="#5b6475" text-anchor="middle">7/10</text>
  <text x="386" y="350" font-size="11" fill="#5b6475" text-anchor="middle">7/11</text>
  <text x="434" y="350" font-size="11" fill="#5b6475" text-anchor="middle">7/12</text>
  <text x="482" y="350" font-size="11" fill="#5b6475" text-anchor="middle">7/13</text>
  <text x="530" y="350" font-size="11" fill="#5b6475" text-anchor="middle">7/14</text>
  <text x="578" y="350" font-size="11" fill="#5b6475" text-anchor="middle">7/15</text>
  <text x="626" y="350" font-size="11" fill="#5b6475" text-anchor="middle">7/16</text>
  <text x="674" y="350" font-size="11" fill="#5b6475" text-anchor="middle">7/17</text>
  <text x="722" y="350" font-size="11" fill="#5b6475" text-anchor="middle">7/18</text>
  <text x="770" y="350" font-size="11" fill="#5b6475" text-anchor="middle">7/19</text>
  <text x="818" y="350" font-size="11" fill="#5b6475" text-anchor="middle">7/20</text>
  <text x="866" y="350" font-size="11" fill="#5b6475" text-anchor="middle">7/21</text>
  <text x="914" y="350" font-size="11" fill="#5b6475" text-anchor="middle">7/22</text>

  <!-- 星期标签 -->
  <text x="98" y="364" font-size="10" fill="#94a3b8" text-anchor="middle">三</text>
  <text x="146" y="364" font-size="10" fill="#94a3b8" text-anchor="middle">四</text>
  <text x="194" y="364" font-size="10" fill="#94a3b8" text-anchor="middle">五</text>
  <text x="242" y="364" font-size="10" fill="#94a3b8" text-anchor="middle">六</text>
  <text x="290" y="364" font-size="10" fill="#94a3b8" text-anchor="middle">日</text>
  <text x="338" y="364" font-size="10" fill="#94a3b8" text-anchor="middle">一</text>
  <text x="386" y="364" font-size="10" fill="#94a3b8" text-anchor="middle">二</text>
  <text x="434" y="364" font-size="10" fill="#94a3b8" text-anchor="middle">三</text>
  <text x="482" y="364" font-size="10" fill="#94a3b8" text-anchor="middle">四</text>
  <text x="530" y="364" font-size="10" fill="#94a3b8" text-anchor="middle">五</text>
  <text x="578" y="364" font-size="10" fill="#94a3b8" text-anchor="middle">六</text>
  <text x="626" y="364" font-size="10" fill="#94a3b8" text-anchor="middle">日</text>
  <text x="674" y="364" font-size="10" fill="#94a3b8" text-anchor="middle">一</text>
  <text x="722" y="364" font-size="10" fill="#94a3b8" text-anchor="middle">二</text>
  <text x="770" y="364" font-size="10" fill="#94a3b8" text-anchor="middle">三</text>
  <text x="818" y="364" font-size="10" fill="#94a3b8" text-anchor="middle">四</text>
  <text x="866" y="364" font-size="10" fill="#94a3b8" text-anchor="middle">五</text>
  <text x="914" y="364" font-size="10" fill="#94a3b8" text-anchor="middle">六</text>

  <!-- ===== 数据 ===== -->

  <!-- Redis: 7/5 7/7 7/8 7/9 -->
  <!-- col1 -->
  <rect x="75" y="88" width="46" height="36" rx="4" fill="#f59e0b" opacity="0.85"/>
  <text x="98" y="110" font-size="10" fill="#ffffff" text-anchor="middle">基础入门</text>
  <!-- col3 -->
  <rect x="171" y="88" width="46" height="36" rx="4" fill="#f59e0b" opacity="0.85"/>
  <text x="194" y="110" font-size="10" fill="#ffffff" text-anchor="middle">秒杀/锁</text>
  <!-- col4 -->
  <rect x="219" y="88" width="46" height="36" rx="4" fill="#f59e0b" opacity="0.85"/>
  <text x="242" y="110" font-size="10" fill="#ffffff" text-anchor="middle">MQ</text>
  <!-- col5 -->
  <rect x="267" y="88" width="46" height="36" rx="4" fill="#f59e0b" opacity="0.85"/>
  <text x="290" y="110" font-size="10" fill="#ffffff" text-anchor="middle">探店</text>

  <!-- JavaSE 基础: 7/9(col5) -->
  <rect x="267" y="136" width="46" height="36" rx="4" fill="#3b82f6" opacity="0.85"/>
  <text x="290" y="158" font-size="10" fill="#ffffff" text-anchor="middle">入门到JVM</text>

  <!-- JavaSE 面向对象: 7/16(col12), 7/19(col15) -->
  <rect x="603" y="184" width="46" height="36" rx="4" fill="#3b82f6" opacity="0.85"/>
  <text x="626" y="206" font-size="10" fill="#ffffff" text-anchor="middle">OOP/API</text>
  <rect x="747" y="184" width="46" height="36" rx="4" fill="#3b82f6" opacity="0.75"/>
  <text x="770" y="206" font-size="10" fill="#ffffff" text-anchor="middle">克隆/正则/日期</text>

  <!-- JavaSE 进阶: 7/20(col16), 7/21(col17), 7/22(col18) -->
  <rect x="795" y="232" width="46" height="36" rx="4" fill="#3b82f6" opacity="0.8"/>
  <text x="818" y="254" font-size="10" fill="#ffffff" text-anchor="middle">集合(一)</text>
  <rect x="843" y="232" width="46" height="36" rx="4" fill="#3b82f6" opacity="0.85"/>
  <text x="866" y="254" font-size="10" fill="#ffffff" text-anchor="middle">List/泛型</text>
  <rect x="891" y="232" width="46" height="36" rx="4" fill="#3b82f6" opacity="0.95"/>
  <text x="914" y="254" font-size="10" fill="#ffffff" text-anchor="middle">数据结构</text>

  <!-- JavaWeb: 7/9(col5) -->
  <rect x="267" y="280" width="46" height="36" rx="4" fill="#10b981" opacity="0.85"/>
  <text x="290" y="302" font-size="10" fill="#ffffff" text-anchor="middle">全15篇</text>

  <!-- X 轴 -->
  <line x1="70" y1="380" x2="940" y2="380" stroke="#64748b" stroke-width="2"/>

  <!-- 休息日标记 -->
  <text x="146" y="378" font-size="10" fill="#dc2626" text-anchor="middle">✕</text>
  <text x="338" y="378" font-size="10" fill="#dc2626" text-anchor="middle">✕</text>
  <text x="386" y="378" font-size="10" fill="#dc2626" text-anchor="middle">✕</text>
  <text x="434" y="378" font-size="10" fill="#dc2626" text-anchor="middle">✕</text>
  <text x="482" y="378" font-size="10" fill="#dc2626" text-anchor="middle">✕</text>
  <text x="530" y="378" font-size="10" fill="#dc2626" text-anchor="middle">✕</text>
  <text x="578" y="378" font-size="10" fill="#dc2626" text-anchor="middle">✕</text>
  <text x="674" y="378" font-size="10" fill="#dc2626" text-anchor="middle">✕</text>
  <text x="722" y="378" font-size="10" fill="#dc2626" text-anchor="middle">✕</text>

  <!-- 里程碑标记 -->
  <text x="75" y="405" font-size="11" fill="#5b6475">↑ 7/5 开始学 Redis</text>
  <text x="290" y="425" font-size="11" fill="#5b6475">↑ 7/9 JavaWeb + JavaSE 入门笔记</text>
  <text x="603" y="445" font-size="11" fill="#5b6475">↑ 7/16 OOP &amp; String 开始</text>
  <text x="795" y="465" font-size="11" fill="#5b6475">↑ 7/20 集合进阶阶段开始</text>
  <text x="891" y="485" font-size="11" fill="#5b6475">↑ 7/22 上部学完 🎉</text>

  <circle cx="75" cy="403" r="4" fill="#f59e0b"/>
  <circle cx="290" cy="423" r="4" fill="#10b981"/>
  <circle cx="603" cy="443" r="4" fill="#3b82f6"/>
  <circle cx="795" cy="463" r="4" fill="#3b82f6"/>
  <circle cx="914" cy="483" r="4" fill="#3b82f6"/>

  <!-- 底部进度 -->
  <text x="20" y="530" font-size="13" fill="#5b6475">已完成：Redis 篇 · JavaSE 上部 · JavaWeb 全套</text>
  <text x="20" y="550" font-size="13" fill="#5b6475">进行中：JavaSE 下部（进阶）</text>
</svg>
